<?xml version="1.0" encoding="UTF-8" standalone="no"?>
<svg
   xmlns:dc="http://purl.org/dc/elements/1.1/"
   xmlns:cc="http://creativecommons.org/ns#"
   xmlns:rdf="http://www.w3.org/1999/02/22-rdf-syntax-ns#"
   xmlns:svg="http://www.w3.org/2000/svg"
   xmlns="http://www.w3.org/2000/svg"
   xmlns:sodipodi="http://sodipodi.sourceforge.net/DTD/sodipodi-0.dtd"
   xmlns:inkscape="http://www.inkscape.org/namespaces/inkscape"
   sodipodi:docname="icon-logo.svg"
   inkscape:version="1.0 (4035a4fb49, 2020-05-01)"
   id="svg925"
   version="1.1"
   viewBox="0 0 30 18"
   height="36px"
   width="60px">
  <defs
     id="defs919" />
  <sodipodi:namedview
     inkscape:window-maximized="1"
     inkscape:window-y="-8"
     inkscape:window-x="-8"
     inkscape:window-height="1002"
     inkscape:window-width="1920"
     showgrid="false"
     inkscape:document-rotation="0"
     inkscape:current-layer="layer1"
     inkscape:document-units="mm"
     inkscape:cy="50.004593"
     inkscape:cx="72.732451"
     inkscape:zoom="3.959798"
     inkscape:pageshadow="2"
     inkscape:pageopacity="0.0"
     borderopacity="1.0"
     bordercolor="#666666"
     pagecolor="#ffffff"
     id="base" />
  <metadata
     id="metadata922">
    <rdf:RDF>
      <cc:Work
         rdf:about="">
        <dc:format>image/svg+xml</dc:format>
        <dc:type
           rdf:resource="http://purl.org/dc/dcmitype/StillImage" />
        <dc:title></dc:title>
      </cc:Work>
    </rdf:RDF>
  </metadata>
  <g
     transform="translate(34.035406,-49.453773)"
     id="layer1"
     inkscape:groupmode="layer"
     inkscape:label="Layer 1">
    <g
       transform="matrix(0.81784079,0,0,0.80490182,-6.1998626,11.304114)"
       id="g1648">
      <g
         id="g1619">
        <path
           transform="matrix(0.26458333,0,0,0.26458333,-34.017857,46.869045)"
           d="m 69.253906,1.9941406 c 0,0 -20.724609,14.1261854 -20.724609,26.7246094 0,5.300466 3.677513,10.859476 7.927734,15.535156 5.851872,-6.437573 12.796875,-11.189453 12.796875,-11.189453 0,0 6.946957,4.75188 12.798828,11.189453 4.250221,-4.67568 7.927735,-10.23469 7.927735,-15.535156 0,-12.598424 -20.726563,-26.7246094 -20.726563,-26.7246094 z M 82.052734,44.253906 c -5.851926,6.437721 -12.798828,11.191406 -12.798828,11.191406 0,0 -6.944948,-4.753685 -12.796875,-11.191406 -4.250333,4.67574 -7.927734,10.236534 -7.927734,15.53711 0,12.598424 20.724609,26.724609 20.724609,26.724609 0,0 20.726563,-14.126185 20.726563,-26.724609 0,-5.300576 -3.677402,-10.86137 -7.927735,-15.53711 z"
           style="fill:#000000;fill-opacity:1;stroke-width:1.96887;stroke-linecap:round;paint-order:markers stroke fill"
           id="rect1552" />
        <path
           sodipodi:nodetypes="zczcz"
           d="m -26.964338,53.094555 c 3.333333,0 7.071068,5.483568 7.071068,5.483568 0,0 -3.737735,5.483568 -7.071068,5.483568 -3.333333,0 -7.071068,-5.483568 -7.071068,-5.483568 0,0 3.737735,-5.483568 7.071068,-5.483568 z"
           style="fill:#000000;fill-opacity:1;stroke-width:0.52093;stroke-linecap:round;paint-order:markers stroke fill"
           id="rect1552-5-0" />
      </g>
      <path
         sodipodi:nodetypes="zczcz"
         d="m -4.424518,53.094555 c -3.333333,0 -7.071068,5.483568 -7.071068,5.483568 0,0 3.737735,5.483568 7.071068,5.483568 3.333333,0 7.071068,-5.483568 7.071068,-5.483568 0,0 -3.737735,-5.483568 -7.071068,-5.483568 z"
         style="fill:#000000;fill-opacity:1;stroke-width:0.52093;stroke-linecap:round;paint-order:markers stroke fill"
         id="rect1552-5-0-2" />
    </g>
  </g>
</svg>
